<!-- icon666.com - MILLIONS vector ICONS FREE --><svg viewBox="0 0 512 512" xmlns="http://www.w3.org/2000/svg"><path d="m178.054688 419.621094c17.8125 33.339844 39.734374 54.324218 62.917968 60.691406v-209.390625h-98.660156c1.882812 56.402344 14.398438 108.746094 35.742188 148.699219zm0 0"></path><path d="m333.941406 419.621094c21.34375-39.953125 33.863282-92.296875 35.746094-148.699219h-98.660156v209.390625c23.179687-6.367188 45.105468-27.351562 62.914062-60.691406zm0 0"></path><path d="m360.449219 78.207031c23.570312 44.125 37.34375 101.40625 39.296875 162.660157h112.242187c-3.628906-62.808594-29.804687-121.351563-74.65625-166.203126-44.875-44.878906-103.460937-71.054687-166.304687-74.664062 34.402344 6.074219 65.730468 33.867188 89.421875 78.207031zm0 0"></path><path d="m178.054688 92.367188c-21.316407 39.90625-33.832032 92.171874-35.738282 148.503906h98.65625v-209.199219c-23.183594 6.371094-45.105468 27.355469-62.917968 60.695313zm0 0"></path><path d="m333.941406 92.367188c-17.808594-33.339844-39.734375-54.324219-62.917968-60.691407v209.191407h98.65625c-1.902344-56.328126-14.417969-108.59375-35.738282-148.5zm0 0"></path><path d="m399.75 270.921875c-1.925781 61.328125-15.703125 118.6875-39.300781 162.859375-23.691407 44.339844-55.019531 72.132812-89.425781 78.207031 62.847656-3.609375 121.429687-29.785156 166.308593-74.664062 44.898438-44.898438 71.082031-103.519531 74.667969-166.402344zm0 0"></path><path d="m.0117188 240.867188h112.2421872c1.953125-61.253907 15.722656-118.539063 39.296875-162.660157 23.6875-44.339843 55.019531-72.132812 89.421875-78.207031-62.847656 3.609375-121.429687 29.785156-166.304687 74.664062-44.851563 44.851563-71.027344 103.394532-74.6562502 166.203126zm0 0"></path><path d="m151.550781 433.78125c-23.597656-44.171875-37.375-101.53125-39.304687-162.859375h-112.246094c3.585938 62.882813 29.769531 121.503906 74.667969 166.402344 44.875 44.878906 103.460937 71.054687 166.308593 74.664062-34.40625-6.074219-65.738281-33.867187-89.425781-78.207031zm0 0"></path></svg>